{
    "accessors": {
        "accessor_21": {
            "bufferView": "bufferView_29",
            "byteOffset": 0,
            "byteStride": 0,
            "componentType": 5123,
            "count": 1296,
            "type": "SCALAR"
        },
        "accessor_23": {
            "bufferView": "bufferView_30",
            "byteOffset": 0,
            "byteStride": 12,
            "componentType": 5126,
            "count": 1296,
            "max": [
                0.999719,
                0.984532,
                1
            ],
            "min": [
                -0.99972,
                -0.984531,
                0.0423147
            ],
            "type": "VEC3"
        },
        "accessor_25": {
            "bufferView": "bufferView_30",
            "byteOffset": 15552,
            "byteStride": 12,
            "componentType": 5126,
            "count": 1296,
            "max": [
                0.981964,
                0.96704,
                1
            ],
            "min": [
                -0.981964,
                -0.96704,
                -1
            ],
            "type": "VEC3"
        },
        "accessor_27": {
            "bufferView": "bufferView_30",
            "byteOffset": 31104,
            "byteStride": 8,
            "componentType": 5126,
            "count": 1296,
            "max": [
                0.996379,
                0.993839
            ],
            "min": [
                0.0131702,
                0.00720829
            ],
            "type": "VEC2"
        }
    },
    "animations": {},
    "asset": {
        "generator": "collada2gltf@dd6dd34ee1a3e2fc767d725df924353ca0dc08c2",
        "premultipliedAlpha": true,
        "profile": "WebGL 1.0.2",
        "version": 0.8
    },
    "bufferViews": {
        "bufferView_29": {
            "buffer": "Ball2",
            "byteLength": 2592,
            "byteOffset": 0,
            "target": 34963
        },
        "bufferView_30": {
            "buffer": "Ball2",
            "byteLength": 41472,
            "byteOffset": 2592,
            "target": 34962
        }
    },
    "buffers": {
        "Ball2": {
            "byteLength": 44064,
            "type": "arraybuffer",
            "uri": "Ball2.bin"
        }
    },
    "images": {
        "BaseDiffuse": {
            "uri": "BaseDiffuse.png"
        },
        "MiddleBumps": {
            "uri": "MiddleBumps.png"
        },
        "MiddleDetail": {
            "uri": "MiddleDetail.png"
        },
        "MiddleSpecular": {
            "uri": "MiddleSpecular.png"
        }
    },
    "lights": {
        "Core-light": {
            "point": {
                "color": [
                    3,
                    3,
                    3
                ],
                "constantAttenuation": 1,
                "linearAttenuation": 0,
                "quadraticAttenuation": 0.00159997
            },
            "type": "point"
        },
        "Sun-light": {
            "directional": {
                "color": [
                    1,
                    1,
                    1
                ]
            },
            "type": "directional"
        },
        "Sun_001-light": {
            "directional": {
                "color": [
                    1,
                    1,
                    1
                ]
            },
            "type": "directional"
        },
        "Sun_002-light": {
            "directional": {
                "color": [
                    1,
                    1,
                    1
                ]
            },
            "type": "directional"
        }
    },
    "materials": {
        "Material_001-effect": {
            "instanceTechnique": {
                "technique": "technique0",
                "values": {
                    "ambient": [
                        0,
                        0,
                        0,
                        1
                    ],
                    "bump": "texture_MiddleBumps",
                    "diffuse": "texture_MiddleSpecular",
                    "emission": [
                        0,
                        0,
                        0,
                        1
                    ],
                    "shininess": 50,
                    "specular": [
                        0.5,
                        0.5,
                        0.5,
                        1
                    ]
                }
            },
            "name": "Material_001"
        }
    },
    "meshes": {
        "Hemisphere-mesh": {
            "name": "Hemisphere",
            "primitives": [
                {
                    "attributes": {
                        "NORMAL": "accessor_25",
                        "POSITION": "accessor_23",
                        "TEXCOORD_0": "accessor_27"
                    },
                    "indices": "accessor_21",
                    "material": "Material_001-effect",
                    "primitive": 4
                }
            ]
        }
    },
    "nodes": {
        "Core": {
            "children": [],
            "light": "Core-light",
            "matrix": [
                1,
                0,
                0,
                0,
                0,
                1,
                0,
                0,
                0,
                0,
                1,
                0,
                0,
                0,
                0,
                1
            ],
            "name": "Core"
        },
        "HemisphereLeft": {
            "children": [],
            "matrix": [
                -4.37114e-08,
                0,
                -1,
                0,
                0,
                1,
                0,
                0,
                -1,
                0,
                4.37114e-08,
                0,
                0,
                0,
                0,
                1
            ],
            "meshes": [
                "Hemisphere-mesh"
            ],
            "name": "HemisphereLeft"
        },
        "HemisphereRight": {
            "children": [],
            "matrix": [
                -4.37114e-08,
                0,
                -1,
                0,
                0,
                1,
                0,
                0,
                1,
                0,
                -4.37114e-08,
                0,
                0,
                0,
                0,
                1
            ],
            "meshes": [
                "Hemisphere-mesh"
            ],
            "name": "HemisphereRight"
        },
        "Sun": {
            "children": [],
            "light": "Sun-light",
            "matrix": [
                -0.327336,
                0.426571,
                -0.843142,
                0,
                0.918849,
                0.351808,
                -0.178738,
                0,
                0.22038,
                -0.833228,
                -0.507114,
                0,
                3.37165,
                -5.78493,
                0.667447,
                1
            ],
            "name": "Sun"
        },
        "Sun_001": {
            "children": [],
            "light": "Sun_001-light",
            "matrix": [
                0.412423,
                0.621483,
                -0.666082,
                0,
                -0.833224,
                0.552936,
                0,
                0,
                0.368301,
                0.554995,
                0.745879,
                0,
                4.84758,
                0.677863,
                0.667447,
                1
            ],
            "name": "Sun_001"
        },
        "Sun_002": {
            "children": [],
            "light": "Sun_002-light",
            "matrix": [
                0.228491,
                0.486728,
                -0.843142,
                0,
                0.734638,
                -0.654492,
                -0.178738,
                0,
                -0.638826,
                -0.578564,
                -0.507114,
                0,
                3.37165,
                -5.78493,
                0.667447,
                1
            ],
            "name": "Sun_002"
        },
        "node_6": {
            "children": [
                "HemisphereRight",
                "Core",
                "HemisphereLeft",
                "Sun",
                "Sun_001",
                "Sun_002"
            ],
            "matrix": [
                1,
                0,
                0,
                0,
                0,
                0,
                -1,
                0,
                0,
                1,
                0,
                0,
                0,
                0,
                0,
                1
            ],
            "name": "Y_UP_Transform"
        }
    },
    "programs": {
        "program_0": {
            "attributes": [
                "a_normal",
                "a_position",
                "a_texcoord0"
            ],
            "fragmentShader": "Ball20FS",
            "vertexShader": "Ball20VS"
        }
    },
    "samplers": {
        "sampler_0": {
            "magFilter": 9729,
            "minFilter": 9729,
            "wrapS": 10497,
            "wrapT": 10497
        }
    },
    "scene": "defaultScene",
    "scenes": {
        "defaultScene": {
            "nodes": [
                "node_6"
            ]
        }
    },
    "shaders": {
        "Ball20FS": {
            "type": 35632,
            "uri": "Ball20FS.glsl"
        },
        "Ball20VS": {
            "type": 35633,
            "uri": "Ball20VS.glsl"
        }
    },
    "skins": {},
    "techniques": {
        "technique0": {
            "parameters": {
                "ambient": {
                    "type": 35666
                },
                "bump": {
                    "type": 35678
                },
                "diffuse": {
                    "type": 35678
                },
                "emission": {
                    "type": 35666
                },
                "light0Color": {
                    "type": 35665,
                    "value": [
                        3,
                        3,
                        3
                    ]
                },
                "light0ConstantAttenuation": {
                    "type": 5126,
                    "value": 1
                },
                "light0LinearAttenuation": {
                    "type": 5126,
                    "value": 0
                },
                "light0QuadraticAttenuation": {
                    "type": 5126,
                    "value": 0.00159997
                },
                "light0Transform": {
                    "semantic": "MODELVIEW",
                    "source": "Core",
                    "type": 35676
                },
                "light1Color": {
                    "type": 35665,
                    "value": [
                        1,
                        1,
                        1
                    ]
                },
                "light1Transform": {
                    "semantic": "MODELVIEW",
                    "source": "Sun",
                    "type": 35676
                },
                "light2Color": {
                    "type": 35665,
                    "value": [
                        1,
                        1,
                        1
                    ]
                },
                "light2Transform": {
                    "semantic": "MODELVIEW",
                    "source": "Sun_001",
                    "type": 35676
                },
                "light3Color": {
                    "type": 35665,
                    "value": [
                        1,
                        1,
                        1
                    ]
                },
                "light3Transform": {
                    "semantic": "MODELVIEW",
                    "source": "Sun_002",
                    "type": 35676
                },
                "modelViewMatrix": {
                    "semantic": "MODELVIEW",
                    "type": 35676
                },
                "normal": {
                    "semantic": "NORMAL",
                    "type": 35665
                },
                "normalMatrix": {
                    "semantic": "MODELVIEWINVERSETRANSPOSE",
                    "type": 35675
                },
                "position": {
                    "semantic": "POSITION",
                    "type": 35665
                },
                "projectionMatrix": {
                    "semantic": "PROJECTION",
                    "type": 35676
                },
                "shininess": {
                    "type": 5126
                },
                "specular": {
                    "type": 35666
                },
                "texcoord0": {
                    "semantic": "TEXCOORD_0",
                    "type": 35664
                }
            },
            "pass": "defaultPass",
            "passes": {
                "defaultPass": {
                    "details": {
                        "commonProfile": {
                            "extras": {
                                "doubleSided": false
                            },
                            "lightingModel": "Phong",
                            "parameters": [
                                "ambient",
                                "bump",
                                "diffuse",
                                "emission",
                                "light0Color",
                                "light0ConstantAttenuation",
                                "light0LinearAttenuation",
                                "light0QuadraticAttenuation",
                                "light0Transform",
                                "light1Color",
                                "light1Transform",
                                "light2Color",
                                "light2Transform",
                                "light3Color",
                                "light3Transform",
                                "modelViewMatrix",
                                "normalMatrix",
                                "projectionMatrix",
                                "shininess",
                                "specular"
                            ],
                            "texcoordBindings": {
                                "bump": "TEXCOORD_0",
                                "diffuse": "TEXCOORD_0"
                            }
                        },
                        "type": "COLLADA-1.4.1/commonProfile"
                    },
                    "instanceProgram": {
                        "attributes": {
                            "a_normal": "normal",
                            "a_position": "position",
                            "a_texcoord0": "texcoord0"
                        },
                        "program": "program_0",
                        "uniforms": {
                            "u_ambient": "ambient",
                            "u_bump": "bump",
                            "u_diffuse": "diffuse",
                            "u_emission": "emission",
                            "u_light0Color": "light0Color",
                            "u_light0ConstantAttenuation": "light0ConstantAttenuation",
                            "u_light0LinearAttenuation": "light0LinearAttenuation",
                            "u_light0QuadraticAttenuation": "light0QuadraticAttenuation",
                            "u_light0Transform": "light0Transform",
                            "u_light1Color": "light1Color",
                            "u_light1Transform": "light1Transform",
                            "u_light2Color": "light2Color",
                            "u_light2Transform": "light2Transform",
                            "u_light3Color": "light3Color",
                            "u_light3Transform": "light3Transform",
                            "u_modelViewMatrix": "modelViewMatrix",
                            "u_normalMatrix": "normalMatrix",
                            "u_projectionMatrix": "projectionMatrix",
                            "u_shininess": "shininess",
                            "u_specular": "specular"
                        }
                    },
                    "states": {
                        "enable": [
                            2884,
                            2929,
                            3042
                        ],
                        "functions": {
                            "blendEquationSeparate": [
                                32774,
                                32774
                            ],
                            "blendFuncSeparate": [
                                1,
                                771,
                                1,
                                771
                            ]
                        }
                    }
                }
            }
        }
    },
    "textures": {
        "texture_MiddleBumps": {
            "format": 6408,
            "internalFormat": 6408,
            "sampler": "sampler_0",
            "source": "MiddleBumps",
            "target": 3553,
            "type": 5121
        },
        "texture_MiddleSpecular": {
            "format": 6408,
            "internalFormat": 6408,
            "sampler": "sampler_0",
            "source": "MiddleSpecular",
            "target": 3553,
            "type": 5121
        }
    }
}