{
    "accessors": {
        "accessor_16": {
            "bufferView": "bufferView_22",
            "byteOffset": 0,
            "byteStride": 0,
            "componentType": 5123,
            "count": 5184,
            "type": "SCALAR"
        },
        "accessor_18": {
            "bufferView": "bufferView_23",
            "byteOffset": 0,
            "byteStride": 12,
            "componentType": 5126,
            "count": 5184,
            "max": [
                0.996586,
                0.996585,
                1
            ],
            "min": [
                -0.996584,
                -0.996585,
                -1
            ],
            "type": "VEC3"
        },
        "accessor_20": {
            "bufferView": "bufferView_23",
            "byteOffset": 62208,
            "byteStride": 12,
            "componentType": 5126,
            "count": 5184,
            "max": [
                0.978149,
                0.978149,
                1
            ],
            "min": [
                -0.978149,
                -0.978149,
                -1
            ],
            "type": "VEC3"
        }
    },
    "animations": {},
    "asset": {
        "generator": "collada2gltf@66c294c04a629b0207eb4168bbbd054c6f97fad5",
        "premultipliedAlpha": true,
        "profile": "WebGL 1.0.2",
        "version": 0.8
    },
    "bufferViews": {
        "bufferView_22": {
            "buffer": "Ball",
            "byteLength": 10368,
            "byteOffset": 0,
            "target": 34963
        },
        "bufferView_23": {
            "buffer": "Ball",
            "byteLength": 124416,
            "byteOffset": 10368,
            "target": 34962
        }
    },
    "buffers": {
        "Ball": {
            "byteLength": 134784,
            "type": "arraybuffer",
            "uri": "Ball.bin"
        }
    },
    "lights": {
        "Point-light": {
            "point": {
                "color": [
                    2,
                    2,
                    2
                ],
                "constantAttenuation": 1,
                "linearAttenuation": 0,
                "quadraticAttenuation": 0.00159997
            },
            "type": "point"
        }
    },
    "materials": {
        "Material_002-effect": {
            "instanceTechnique": {
                "technique": "technique0",
                "values": {
                    "ambient": [
                        0,
                        0,
                        0,
                        1
                    ],
                    "diffuse": [
                        0.64,
                        0.64,
                        0.64,
                        1
                    ],
                    "emission": [
                        0,
                        0,
                        0,
                        1
                    ],
                    "shininess": 50,
                    "specular": [
                        0.5,
                        0.5,
                        0.5,
                        1
                    ]
                }
            },
            "name": "Material_002"
        }
    },
    "meshes": {
        "Sphere_003-mesh": {
            "name": "Sphere.003",
            "primitives": [
                {
                    "attributes": {
                        "NORMAL": "accessor_20",
                        "POSITION": "accessor_18"
                    },
                    "indices": "accessor_16",
                    "material": "Material_002-effect",
                    "primitive": 4
                }
            ]
        }
    },
    "nodes": {
        "Armature": {
            "children": [
                "Bone"
            ],
            "matrix": [
                1,
                0,
                0,
                0,
                0,
                1,
                0,
                0,
                0,
                0,
                1,
                0,
                0,
                0,
                0,
                1
            ],
            "name": "Armature"
        },
        "Bone": {
            "children": [],
            "jointName": "Bone",
            "matrix": [
                1,
                0,
                0,
                0,
                0,
                0,
                1,
                0,
                0,
                -1,
                0,
                0,
                0,
                0,
                0,
                1
            ],
            "name": "Bone"
        },
        "Point": {
            "children": [],
            "light": "Point-light",
            "matrix": [
                1,
                0,
                0,
                0,
                0,
                1,
                0,
                0,
                0,
                0,
                1,
                0,
                0,
                0,
                0,
                1
            ],
            "name": "Point"
        },
        "Sphere_001": {
            "children": [],
            "matrix": [
                -4.37114e-08,
                0,
                -1,
                0,
                0,
                1,
                0,
                0,
                1,
                0,
                -4.37114e-08,
                0,
                0,
                0,
                0,
                1
            ],
            "meshes": [
                "Sphere_003-mesh"
            ],
            "name": "Sphere_001"
        },
        "node_4": {
            "children": [
                "Sphere_001",
                "Armature",
                "Point"
            ],
            "matrix": [
                1,
                0,
                0,
                0,
                0,
                0,
                -1,
                0,
                0,
                1,
                0,
                0,
                0,
                0,
                0,
                1
            ],
            "name": "Y_UP_Transform"
        }
    },
    "programs": {
        "program_0": {
            "attributes": [
                "a_normal",
                "a_position"
            ],
            "fragmentShader": "Ball0FS",
            "vertexShader": "Ball0VS"
        }
    },
    "scene": "defaultScene",
    "scenes": {
        "defaultScene": {
            "nodes": [
                "node_4"
            ]
        }
    },
    "shaders": {
        "Ball0FS": {
            "type": 35632,
            "uri": "Ball0FS.glsl"
        },
        "Ball0VS": {
            "type": 35633,
            "uri": "Ball0VS.glsl"
        }
    },
    "skins": {},
    "techniques": {
        "technique0": {
            "parameters": {
                "ambient": {
                    "type": 35666
                },
                "diffuse": {
                    "type": 35666
                },
                "emission": {
                    "type": 35666
                },
                "light0Color": {
                    "type": 35665,
                    "value": [
                        2,
                        2,
                        2
                    ]
                },
                "light0ConstantAttenuation": {
                    "type": 5126,
                    "value": 1
                },
                "light0LinearAttenuation": {
                    "type": 5126,
                    "value": 0
                },
                "light0QuadraticAttenuation": {
                    "type": 5126,
                    "value": 0.00159997
                },
                "light0Transform": {
                    "semantic": "MODELVIEW",
                    "source": "Point",
                    "type": 35676
                },
                "modelViewMatrix": {
                    "semantic": "MODELVIEW",
                    "type": 35676
                },
                "normal": {
                    "semantic": "NORMAL",
                    "type": 35665
                },
                "normalMatrix": {
                    "semantic": "MODELVIEWINVERSETRANSPOSE",
                    "type": 35675
                },
                "position": {
                    "semantic": "POSITION",
                    "type": 35665
                },
                "projectionMatrix": {
                    "semantic": "PROJECTION",
                    "type": 35676
                },
                "shininess": {
                    "type": 5126
                },
                "specular": {
                    "type": 35666
                }
            },
            "pass": "defaultPass",
            "passes": {
                "defaultPass": {
                    "details": {
                        "commonProfile": {
                            "extras": {
                                "doubleSided": false
                            },
                            "lightingModel": "Phong",
                            "parameters": [
                                "ambient",
                                "diffuse",
                                "emission",
                                "light0Color",
                                "light0ConstantAttenuation",
                                "light0LinearAttenuation",
                                "light0QuadraticAttenuation",
                                "light0Transform",
                                "modelViewMatrix",
                                "normalMatrix",
                                "projectionMatrix",
                                "shininess",
                                "specular"
                            ]
                        },
                        "type": "COLLADA-1.4.1/commonProfile"
                    },
                    "instanceProgram": {
                        "attributes": {
                            "a_normal": "normal",
                            "a_position": "position"
                        },
                        "program": "program_0",
                        "uniforms": {
                            "u_ambient": "ambient",
                            "u_diffuse": "diffuse",
                            "u_emission": "emission",
                            "u_light0Color": "light0Color",
                            "u_light0ConstantAttenuation": "light0ConstantAttenuation",
                            "u_light0LinearAttenuation": "light0LinearAttenuation",
                            "u_light0QuadraticAttenuation": "light0QuadraticAttenuation",
                            "u_light0Transform": "light0Transform",
                            "u_modelViewMatrix": "modelViewMatrix",
                            "u_normalMatrix": "normalMatrix",
                            "u_projectionMatrix": "projectionMatrix",
                            "u_shininess": "shininess",
                            "u_specular": "specular"
                        }
                    },
                    "states": {
                        "enable": [
                            2884,
                            2929
                        ]
                    }
                }
            }
        }
    }
}